<!-- Generated by IcoMoon.io -->
<svg version="1.1" xmlns="http://www.w3.org/2000/svg" width="32" height="32" viewBox="0 0 32 32">
<title>check-mark-svgrepo-com</title>
<symbol id="icon-check" viewBox="0 0 32 32">
<path d="M16 0c-8.822 0-16 7.178-16 16s7.178 16 16 16c8.822 0 16-7.178 16-16s-7.178-16-16-16zM16 29.377c-7.376 0-13.377-6.001-13.377-13.377s6.001-13.377 13.377-13.377c7.376 0 13.377 6.001 13.377 13.377s-6.001 13.377-13.377 13.377z"></path>
<path d="M22.922 9.859l-9.5 9.5-4.343-4.343c-0.512-0.512-1.343-0.512-1.855 0s-0.512 1.343 0 1.855l5.271 5.271c0.256 0.256 0.592 0.384 0.927 0.384s0.671-0.128 0.927-0.384l10.427-10.427c0.512-0.512 0.512-1.343 0-1.855s-1.343-0.512-1.855-0z"></path>
</symbol></svg>
