<!-- Generated by IcoMoon.io -->
<svg version="1.1" xmlns="http://www.w3.org/2000/svg" width="72" height="32" viewBox="0 0 72 32">
<title>logo-1</title>
<symbol id="logo-1" viewBox="0 0 32 32">
<path fill="rgba(107, 114, 128, 1)" d="M0.568 16.947l6.842-0.042c0.168 1.137 0.526 1.579 1.053 2.168 0.842 0.968 2.063 1.453 3.621 1.453 1.179 0 2.084-0.253 2.716-0.737s0.947-1.074 0.947-1.705c0-0.611-0.295-1.179-0.905-1.663s-2-0.947-4.211-1.389c-3.579-0.716-6.147-1.684-7.684-2.884-1.558-1.2-2.316-2.737-2.316-4.611 0-1.221 0.4-2.379 1.179-3.474 0.8-1.095 1.979-1.937 3.579-2.568s3.768-0.926 6.526-0.926c3.389 0 5.579 0.779 7.347 1.916 1.789 1.137 2.926 2.716 3.263 5.2l-7.411 0.042c-0.211-1.074-0.632-1.495-1.305-1.979-0.653-0.484-1.579-0.737-2.737-0.737-0.947 0-1.684 0.189-2.168 0.547s-0.716 0.8-0.716 1.326c0 0.379 0.211 0.716 0.589 1.032s1.305 0.611 2.758 0.884c3.621 0.674 5.916 1.6 7.474 2.316s2.568 1.411 3.263 2.463c0.716 1.053 0.947 2.105 0.947 3.411 0 1.537-0.274 2.905-1.2 4.189-0.947 1.284-1.937 2.379-3.642 3.053-1.684 0.674-3.832 1.011-6.4 1.011-4.526 0-7.053-0.758-8.8-2.316-1.747-1.579-2.379-3.558-2.611-5.979z"></path>
<path fill="rgba(107, 114, 128, 1)" d="M24.379 0.505h6.8l8.863 13.663v-13.663h6.863v24.695h-6.863l-8.821-13.558v13.558h-6.842v-24.695z"></path>
<path fill="rgba(107, 114, 128, 1)" d="M48.526 0.505h23.2v6.105h-7.789v18.611h-7.642v-18.611h-7.789v-6.105z"></path>
<path fill="rgba(107, 114, 128, 1)" d="M2.737 27.811c-0.021 0.042-0.042 0.063-0.063 0.063-0.021 0.021-0.042 0.021-0.084 0.021s-0.063-0.021-0.105-0.042c-0.042-0.021-0.084-0.063-0.147-0.084s-0.126-0.063-0.189-0.084c-0.063-0.021-0.168-0.042-0.253-0.042s-0.168 0.021-0.232 0.042c-0.063 0.021-0.126 0.042-0.168 0.084s-0.084 0.084-0.105 0.147c-0.021 0.063-0.042 0.105-0.042 0.168 0 0.084 0.021 0.147 0.063 0.211s0.105 0.105 0.189 0.147c0.084 0.042 0.168 0.063 0.253 0.105 0.105 0.021 0.189 0.063 0.295 0.105s0.211 0.084 0.295 0.126c0.105 0.042 0.189 0.105 0.253 0.168 0.084 0.063 0.126 0.147 0.189 0.253 0.042 0.105 0.063 0.232 0.063 0.379s-0.021 0.295-0.084 0.442c-0.063 0.147-0.126 0.253-0.232 0.358s-0.232 0.189-0.379 0.232c-0.147 0.063-0.316 0.084-0.505 0.084-0.105 0-0.211-0.021-0.337-0.042-0.105-0.021-0.211-0.063-0.316-0.084-0.105-0.042-0.189-0.084-0.274-0.147s-0.168-0.126-0.232-0.189l0.189-0.316c0.021-0.021 0.042-0.042 0.063-0.063s0.063-0.021 0.084-0.021c0.042 0 0.084 0.021 0.126 0.042 0.042 0.042 0.105 0.063 0.168 0.105s0.147 0.084 0.232 0.105c0.084 0.042 0.189 0.042 0.316 0.042 0.189 0 0.337-0.042 0.421-0.126 0.105-0.084 0.147-0.211 0.147-0.379 0-0.084-0.021-0.168-0.063-0.232s-0.105-0.105-0.189-0.147c-0.084-0.042-0.168-0.063-0.253-0.105s-0.189-0.063-0.295-0.084c-0.105-0.042-0.189-0.063-0.295-0.105s-0.189-0.105-0.253-0.168c-0.084-0.063-0.126-0.168-0.189-0.274-0.042-0.105-0.063-0.253-0.063-0.4 0-0.126 0.021-0.253 0.084-0.379 0.042-0.126 0.126-0.232 0.211-0.316 0.105-0.084 0.211-0.168 0.358-0.232s0.295-0.084 0.484-0.084c0.211 0 0.4 0.042 0.568 0.105s0.316 0.147 0.442 0.274l-0.147 0.337z"></path>
<path fill="rgba(107, 114, 128, 1)" d="M5.558 28.189l-1.347 3.158c-0.021 0.042-0.042 0.063-0.063 0.105-0.021 0.021-0.063 0.042-0.126 0.042h-0.442l0.463-0.989-1.011-2.295h0.526c0.042 0 0.084 0.021 0.105 0.042s0.042 0.042 0.063 0.084l0.526 1.284c0.021 0.042 0.042 0.084 0.042 0.126 0.021 0.042 0.021 0.084 0.042 0.126 0.021-0.042 0.021-0.084 0.042-0.126s0.021-0.084 0.042-0.126l0.505-1.284c0.021-0.042 0.042-0.063 0.063-0.084s0.063-0.021 0.105-0.021h0.463z"></path>
<path fill="rgba(107, 114, 128, 1)" d="M7.326 28.674c-0.021 0.021-0.042 0.042-0.042 0.063-0.021 0-0.042 0.021-0.063 0.021s-0.063 0-0.084-0.021c-0.042-0.021-0.063-0.042-0.105-0.063s-0.084-0.042-0.147-0.063c-0.063-0.021-0.126-0.021-0.189-0.021-0.126 0-0.211 0.021-0.274 0.084s-0.105 0.105-0.105 0.189c0 0.063 0.021 0.105 0.042 0.126 0.042 0.042 0.084 0.063 0.147 0.105 0.063 0.021 0.126 0.042 0.189 0.063s0.147 0.042 0.211 0.063c0.084 0.021 0.147 0.063 0.211 0.084 0.063 0.042 0.147 0.084 0.189 0.126 0.063 0.042 0.105 0.105 0.147 0.189 0.042 0.063 0.042 0.147 0.042 0.253 0 0.126-0.021 0.232-0.063 0.337s-0.105 0.189-0.189 0.253c-0.084 0.063-0.189 0.126-0.316 0.168s-0.274 0.063-0.421 0.063c-0.084 0-0.168 0-0.253-0.021s-0.168-0.042-0.232-0.063c-0.084-0.021-0.147-0.063-0.211-0.105s-0.126-0.084-0.168-0.126l0.147-0.232c0.021-0.021 0.042-0.042 0.063-0.063s0.063-0.021 0.084-0.021c0.042 0 0.063 0 0.105 0.021s0.063 0.042 0.105 0.063c0.042 0.021 0.084 0.042 0.147 0.063s0.126 0.021 0.232 0.021c0.063 0 0.126 0 0.189-0.021 0.042-0.021 0.084-0.042 0.126-0.063s0.063-0.063 0.063-0.105c0.021-0.042 0.021-0.063 0.021-0.105 0-0.063-0.021-0.105-0.042-0.147-0.042-0.042-0.084-0.063-0.147-0.105-0.063-0.021-0.126-0.042-0.189-0.063s-0.147-0.042-0.232-0.063c-0.084-0.021-0.147-0.063-0.232-0.084-0.063-0.042-0.147-0.084-0.189-0.126-0.063-0.063-0.105-0.126-0.147-0.189-0.042-0.084-0.042-0.168-0.042-0.274s0.021-0.189 0.063-0.295c0.042-0.084 0.105-0.168 0.168-0.232 0.084-0.063 0.168-0.126 0.295-0.168s0.253-0.063 0.4-0.063c0.168 0 0.316 0.021 0.463 0.084s0.253 0.126 0.358 0.232l-0.126 0.232z"></path>
<path fill="rgba(107, 114, 128, 1)" d="M8.758 30.695c-0.211 0-0.379-0.063-0.505-0.189-0.105-0.126-0.168-0.295-0.168-0.505v-1.368h-0.253c-0.042 0-0.063 0-0.084-0.021s-0.042-0.042-0.042-0.084v-0.232l0.4-0.063 0.126-0.674c0-0.042 0.021-0.063 0.042-0.084s0.042-0.021 0.084-0.021h0.316v0.779h0.653v0.421h-0.653v1.347c0 0.084 0.021 0.147 0.063 0.189s0.084 0.063 0.147 0.063c0.042 0 0.063 0 0.084-0.021 0.021 0 0.042-0.021 0.063-0.021s0.042-0.021 0.042-0.021c0.021 0 0.021-0.021 0.042-0.021s0.042 0 0.042 0.021c0.021 0 0.021 0.021 0.042 0.042l0.168 0.295c-0.084 0.063-0.189 0.126-0.295 0.168-0.084-0.021-0.211 0-0.316 0z"></path>
<path fill="rgba(107, 114, 128, 1)" d="M10.168 29.495c0 0.126 0.042 0.232 0.063 0.337 0.042 0.084 0.084 0.168 0.147 0.232s0.126 0.105 0.211 0.126c0.084 0.021 0.168 0.042 0.274 0.042s0.189-0.021 0.253-0.042c0.063-0.021 0.126-0.042 0.189-0.084 0.042-0.021 0.105-0.042 0.147-0.084 0.042-0.021 0.084-0.042 0.105-0.042 0.042 0 0.084 0.021 0.105 0.063l0.168 0.211c-0.063 0.084-0.147 0.147-0.232 0.189s-0.168 0.084-0.253 0.126c-0.084 0.021-0.189 0.063-0.274 0.063-0.084 0.021-0.189 0.021-0.274 0.021-0.168 0-0.337-0.021-0.484-0.084s-0.274-0.147-0.379-0.253c-0.105-0.105-0.189-0.253-0.253-0.421s-0.084-0.358-0.084-0.568c0-0.168 0.021-0.337 0.084-0.484s0.126-0.274 0.232-0.379c0.105-0.105 0.232-0.189 0.379-0.253s0.316-0.105 0.505-0.105c0.147 0 0.295 0.021 0.421 0.084 0.126 0.042 0.253 0.126 0.337 0.211 0.105 0.105 0.168 0.211 0.232 0.358s0.084 0.295 0.084 0.484c0 0.084 0 0.147-0.021 0.189-0.021 0.021-0.063 0.042-0.105 0.042h-1.579zM11.284 29.137c0-0.084-0.021-0.147-0.042-0.211s-0.063-0.126-0.105-0.189c-0.042-0.042-0.105-0.084-0.168-0.126-0.063-0.021-0.147-0.042-0.232-0.042-0.168 0-0.316 0.042-0.4 0.147-0.105 0.105-0.168 0.232-0.189 0.421h1.137z"></path>
<path fill="rgba(107, 114, 128, 1)" d="M12.274 30.653v-2.463h0.358c0.084 0 0.126 0.042 0.147 0.105l0.042 0.189c0.042-0.042 0.084-0.084 0.126-0.126s0.105-0.084 0.147-0.105c0.063-0.021 0.105-0.042 0.168-0.063s0.126-0.021 0.211-0.021 0.274 0.042 0.379 0.126c0.105 0.084 0.168 0.189 0.232 0.337 0.042-0.084 0.084-0.147 0.147-0.211s0.126-0.105 0.189-0.147c0.063-0.042 0.147-0.063 0.211-0.084 0.084-0.021 0.147-0.021 0.232-0.021 0.126 0 0.253 0.021 0.358 0.063s0.189 0.105 0.274 0.189c0.063 0.084 0.126 0.168 0.168 0.295 0.042 0.105 0.063 0.253 0.063 0.4v1.579h-0.568v-1.579c0-0.147-0.042-0.274-0.105-0.358s-0.168-0.126-0.295-0.126c-0.063 0-0.126 0-0.168 0.021s-0.105 0.042-0.147 0.084c-0.042 0.042-0.063 0.084-0.084 0.147s-0.042 0.126-0.042 0.211v1.579h-0.589v-1.579c0-0.168-0.042-0.295-0.105-0.358-0.063-0.084-0.168-0.105-0.295-0.105-0.084 0-0.168 0.021-0.253 0.063s-0.147 0.105-0.211 0.168v1.811h-0.589z"></path>
<path fill="rgba(107, 114, 128, 1)" d="M17.832 28.674c-0.021 0.021-0.042 0.042-0.042 0.063-0.021 0-0.042 0.021-0.063 0.021s-0.063 0-0.084-0.021c-0.042-0.021-0.063-0.042-0.105-0.063s-0.084-0.042-0.147-0.063c-0.063-0.021-0.126-0.021-0.189-0.021-0.126 0-0.211 0.021-0.274 0.084s-0.105 0.105-0.105 0.189c0 0.063 0.021 0.105 0.042 0.126 0.042 0.042 0.084 0.063 0.147 0.105 0.063 0.021 0.126 0.042 0.189 0.063s0.147 0.042 0.211 0.063c0.084 0.021 0.147 0.063 0.211 0.084 0.063 0.042 0.147 0.084 0.189 0.126 0.063 0.042 0.105 0.105 0.147 0.189 0.042 0.063 0.042 0.147 0.042 0.253 0 0.126-0.021 0.232-0.063 0.337s-0.105 0.189-0.189 0.253c-0.084 0.063-0.189 0.126-0.316 0.168s-0.274 0.063-0.421 0.063c-0.084 0-0.168 0-0.253-0.021s-0.168-0.042-0.232-0.063c-0.084-0.021-0.147-0.063-0.211-0.105s-0.126-0.084-0.168-0.126l0.147-0.232c0.021-0.021 0.042-0.042 0.063-0.063s0.063-0.021 0.084-0.021c0.042 0 0.063 0 0.105 0.021s0.063 0.042 0.105 0.063c0.042 0.021 0.084 0.042 0.147 0.063s0.126 0.021 0.232 0.021c0.063 0 0.126 0 0.189-0.021 0.042-0.021 0.084-0.042 0.126-0.063s0.063-0.063 0.063-0.105c0.021-0.042 0.021-0.063 0.021-0.105 0-0.063-0.021-0.105-0.042-0.147-0.042-0.042-0.084-0.063-0.147-0.105-0.063-0.021-0.126-0.042-0.189-0.063s-0.147-0.042-0.232-0.063c-0.084-0.021-0.147-0.063-0.232-0.084-0.063-0.042-0.147-0.084-0.189-0.126-0.063-0.063-0.105-0.126-0.147-0.189-0.042-0.084-0.042-0.168-0.042-0.274s0.021-0.189 0.063-0.295c0.042-0.084 0.105-0.168 0.168-0.232 0.084-0.063 0.168-0.126 0.295-0.168s0.253-0.063 0.4-0.063c0.168 0 0.316 0.021 0.463 0.084s0.253 0.126 0.358 0.232l-0.126 0.232z"></path>
<path fill="rgba(107, 114, 128, 1)" d="M18.337 30.337c0-0.042 0-0.105 0.021-0.147s0.042-0.084 0.084-0.105c0.042-0.042 0.063-0.063 0.105-0.084s0.084-0.021 0.147-0.021c0.042 0 0.105 0 0.147 0.021s0.084 0.042 0.105 0.084c0.042 0.042 0.063 0.063 0.084 0.105s0.021 0.084 0.021 0.147c0 0.042 0 0.105-0.021 0.147s-0.042 0.084-0.084 0.105c-0.042 0.042-0.063 0.063-0.105 0.084s-0.084 0.021-0.147 0.021c-0.042 0-0.105 0-0.147-0.021s-0.084-0.042-0.105-0.084c-0.042-0.042-0.063-0.063-0.084-0.105 0-0.042-0.021-0.105-0.021-0.147z"></path>
<path fill="rgba(107, 114, 128, 1)" d="M23.789 27.179v3.495h-0.337c-0.042 0-0.084 0-0.126-0.021s-0.063-0.042-0.105-0.084l-1.811-2.316c0 0.105 0.021 0.211 0.021 0.295v2.147h-0.589v-3.495h0.337c0.021 0 0.042 0 0.063 0s0.042 0 0.063 0.021c0.021 0 0.021 0.021 0.042 0.021 0.021 0.021 0.021 0.042 0.042 0.063l1.832 2.337c0-0.063 0-0.105-0.021-0.168 0-0.063 0-0.105 0-0.147v-2.126h0.589z"></path>
<path fill="rgba(107, 114, 128, 1)" d="M24.842 29.495c0 0.126 0.042 0.232 0.063 0.337 0.042 0.084 0.084 0.168 0.147 0.232s0.126 0.105 0.211 0.126c0.084 0.021 0.168 0.042 0.274 0.042s0.189-0.021 0.253-0.042c0.063-0.021 0.126-0.042 0.189-0.084 0.042-0.021 0.105-0.042 0.147-0.084 0.042-0.021 0.084-0.042 0.105-0.042 0.042 0 0.084 0.021 0.105 0.063l0.168 0.211c-0.063 0.084-0.147 0.147-0.232 0.189s-0.168 0.084-0.253 0.126c-0.084 0.021-0.189 0.063-0.274 0.063-0.084 0.021-0.189 0.021-0.274 0.021-0.168 0-0.337-0.021-0.484-0.084s-0.274-0.147-0.379-0.253c-0.105-0.105-0.189-0.253-0.253-0.421s-0.084-0.358-0.084-0.568c0-0.168 0.021-0.337 0.084-0.484s0.126-0.274 0.232-0.379c0.105-0.105 0.232-0.189 0.379-0.253s0.316-0.105 0.505-0.105c0.147 0 0.295 0.021 0.421 0.084 0.126 0.042 0.253 0.126 0.337 0.211 0.105 0.105 0.168 0.211 0.232 0.358s0.084 0.295 0.084 0.484c0 0.084 0 0.147-0.021 0.189-0.021 0.021-0.063 0.042-0.105 0.042h-1.579zM25.979 29.137c0-0.084-0.021-0.147-0.042-0.211s-0.063-0.126-0.105-0.189c-0.042-0.042-0.105-0.084-0.168-0.126-0.063-0.021-0.147-0.042-0.232-0.042-0.168 0-0.316 0.042-0.4 0.147-0.105 0.105-0.168 0.232-0.189 0.421h1.137z"></path>
<path fill="rgba(107, 114, 128, 1)" d="M27.768 30.695c-0.211 0-0.379-0.063-0.505-0.189-0.105-0.126-0.168-0.295-0.168-0.505v-1.368h-0.253c-0.042 0-0.063 0-0.084-0.021s-0.042-0.042-0.042-0.084v-0.232l0.4-0.063 0.126-0.674c0-0.042 0.021-0.063 0.042-0.084s0.042-0.021 0.084-0.021h0.316v0.779h0.653v0.421h-0.653v1.347c0 0.084 0.021 0.147 0.063 0.189s0.084 0.063 0.147 0.063c0.042 0 0.063 0 0.084-0.021 0.021 0 0.042-0.021 0.063-0.021s0.042-0.021 0.042-0.021c0.021 0 0.021-0.021 0.042-0.021s0.042 0 0.042 0.021c0.021 0 0.021 0.021 0.042 0.042l0.168 0.295c-0.084 0.063-0.189 0.126-0.295 0.168-0.084-0.021-0.211 0-0.316 0z"></path>
<path fill="rgba(107, 114, 128, 1)" d="M32.274 28.189l-0.779 2.463h-0.484c-0.063 0-0.084-0.042-0.105-0.105l-0.442-1.432c-0.021-0.042-0.021-0.105-0.042-0.147s-0.021-0.105-0.021-0.147c0 0.042-0.021 0.105-0.042 0.147s-0.021 0.105-0.042 0.147l-0.442 1.432c-0.021 0.063-0.063 0.105-0.126 0.105h-0.484l-0.779-2.463h0.484c0.042 0 0.084 0 0.105 0.021s0.042 0.042 0.063 0.084l0.358 1.326c0.021 0.063 0.042 0.147 0.042 0.211 0.021 0.063 0.021 0.147 0.042 0.211 0.021-0.063 0.042-0.147 0.063-0.211s0.042-0.147 0.063-0.211l0.4-1.326c0-0.042 0.021-0.063 0.063-0.084 0.021-0.021 0.063-0.021 0.105-0.021h0.253c0.042 0 0.084 0 0.105 0.021s0.042 0.042 0.063 0.084l0.4 1.326c0.021 0.063 0.042 0.147 0.063 0.211s0.042 0.147 0.063 0.211c0.021-0.126 0.042-0.274 0.084-0.421l0.358-1.326c0.021-0.042 0.021-0.063 0.063-0.084 0.021-0.021 0.063-0.021 0.105-0.021h0.442z"></path>
<path fill="rgba(107, 114, 128, 1)" d="M33.663 28.147c0.189 0 0.358 0.021 0.505 0.084s0.274 0.147 0.379 0.253c0.105 0.105 0.189 0.253 0.253 0.4s0.084 0.337 0.084 0.526c0 0.189-0.021 0.379-0.084 0.526s-0.147 0.295-0.253 0.4c-0.105 0.105-0.232 0.189-0.379 0.253s-0.316 0.084-0.505 0.084c-0.189 0-0.358-0.021-0.505-0.084s-0.274-0.147-0.379-0.253c-0.105-0.105-0.189-0.253-0.253-0.4s-0.084-0.337-0.084-0.526c0-0.189 0.021-0.379 0.084-0.526s0.147-0.295 0.253-0.4c0.105-0.105 0.232-0.189 0.379-0.253 0.147-0.042 0.316-0.084 0.505-0.084zM33.663 30.232c0.211 0 0.358-0.063 0.463-0.211s0.147-0.337 0.147-0.611c0-0.274-0.042-0.463-0.147-0.611s-0.253-0.211-0.463-0.211c-0.211 0-0.358 0.063-0.463 0.211s-0.147 0.337-0.147 0.611c0 0.274 0.042 0.463 0.147 0.611 0.084 0.147 0.253 0.211 0.463 0.211z"></path>
<path fill="rgba(107, 114, 128, 1)" d="M35.895 28.611c0.084-0.147 0.168-0.274 0.274-0.358s0.232-0.126 0.379-0.126c0.105 0 0.211 0.021 0.274 0.084l-0.042 0.442c0 0.021-0.021 0.042-0.042 0.063s-0.042 0.021-0.063 0.021c-0.021 0-0.063 0-0.105-0.021-0.042 0-0.084-0.021-0.147-0.021s-0.126 0-0.168 0.021c-0.042 0.021-0.105 0.042-0.147 0.084s-0.084 0.084-0.105 0.126c-0.021 0.042-0.063 0.105-0.084 0.168v1.516h-0.589v-2.463h0.358c0.063 0 0.105 0.021 0.126 0.042s0.042 0.063 0.042 0.126l0.042 0.295z"></path>
<path fill="rgba(107, 114, 128, 1)" d="M37.726 27.074v2.042h0.105c0.042 0 0.063 0 0.105-0.021 0.021 0 0.042-0.042 0.063-0.063l0.611-0.758c0.021-0.042 0.063-0.063 0.084-0.084s0.063-0.021 0.126-0.021h0.547l-0.779 0.926c-0.063 0.063-0.105 0.126-0.168 0.168 0.042 0.021 0.063 0.042 0.084 0.084s0.042 0.063 0.084 0.105l0.821 1.2h-0.547c-0.042 0-0.084 0-0.126-0.021s-0.063-0.042-0.084-0.084l-0.632-0.947c-0.021-0.042-0.042-0.063-0.063-0.063-0.021-0.021-0.063-0.021-0.105-0.021h-0.126v1.137h-0.589v-3.579h0.589z"></path>
<path fill="rgba(107, 114, 128, 1)" d="M41.221 28.674c-0.021 0.021-0.042 0.042-0.042 0.063-0.021 0-0.042 0.021-0.063 0.021s-0.063 0-0.084-0.021c-0.042-0.021-0.063-0.042-0.105-0.063s-0.084-0.042-0.147-0.063c-0.063-0.021-0.126-0.021-0.189-0.021-0.126 0-0.211 0.021-0.274 0.084-0.063 0.042-0.105 0.105-0.105 0.189 0 0.063 0.021 0.105 0.042 0.126 0.042 0.042 0.084 0.063 0.147 0.105 0.063 0.021 0.126 0.042 0.189 0.063s0.147 0.042 0.211 0.063c0.084 0.021 0.147 0.063 0.211 0.084 0.063 0.042 0.147 0.084 0.189 0.126 0.063 0.042 0.105 0.105 0.147 0.189 0.042 0.063 0.042 0.147 0.042 0.253 0 0.126-0.021 0.232-0.063 0.337s-0.105 0.189-0.189 0.253c-0.084 0.063-0.189 0.126-0.316 0.168s-0.274 0.063-0.421 0.063c-0.084 0-0.168 0-0.253-0.021s-0.168-0.042-0.232-0.063c-0.084-0.021-0.147-0.063-0.211-0.105s-0.126-0.084-0.168-0.126l0.147-0.232c0.021-0.021 0.042-0.042 0.063-0.063s0.063-0.021 0.084-0.021c0.042 0 0.063 0 0.105 0.021s0.063 0.042 0.105 0.063c0.042 0.021 0.084 0.042 0.147 0.063s0.126 0.021 0.232 0.021c0.063 0 0.126 0 0.189-0.021 0.042-0.021 0.084-0.042 0.126-0.063s0.063-0.063 0.063-0.105c0.021-0.042 0.021-0.063 0.021-0.105 0-0.063-0.021-0.105-0.042-0.147-0.042-0.042-0.084-0.063-0.147-0.105-0.063-0.021-0.126-0.042-0.189-0.063s-0.147-0.042-0.232-0.063c-0.084-0.021-0.147-0.063-0.232-0.084-0.063-0.042-0.147-0.084-0.189-0.126-0.063-0.063-0.105-0.126-0.147-0.189-0.042-0.084-0.042-0.168-0.042-0.274s0.021-0.189 0.063-0.295c0.042-0.084 0.105-0.168 0.168-0.232 0.084-0.063 0.168-0.126 0.295-0.168s0.253-0.063 0.4-0.063c0.168 0 0.316 0.021 0.463 0.084s0.253 0.126 0.358 0.232l-0.126 0.232z"></path>
<path fill="rgba(107, 114, 128, 1)" d="M41.726 30.337c0-0.042 0-0.105 0.021-0.147s0.042-0.084 0.084-0.105c0.042-0.042 0.063-0.063 0.105-0.084s0.084-0.021 0.147-0.021c0.042 0 0.105 0 0.147 0.021s0.084 0.042 0.105 0.084c0.042 0.042 0.063 0.063 0.084 0.105s0.021 0.084 0.021 0.147c0 0.042 0 0.105-0.021 0.147s-0.042 0.084-0.084 0.105c-0.042 0.042-0.063 0.063-0.105 0.084s-0.084 0.021-0.147 0.021c-0.042 0-0.105 0-0.147-0.021s-0.084-0.042-0.105-0.084c-0.042-0.042-0.063-0.063-0.084-0.105 0-0.042-0.021-0.105-0.021-0.147z"></path>
<path fill="rgba(107, 114, 128, 1)" d="M46.526 27.705h-1.053v2.947h-0.653v-2.947h-1.053v-0.526h2.758v0.526z"></path>
<path fill="rgba(107, 114, 128, 1)" d="M46.758 29.495c0 0.126 0.042 0.232 0.063 0.337 0.042 0.084 0.084 0.168 0.147 0.232s0.126 0.105 0.211 0.126c0.084 0.021 0.168 0.042 0.274 0.042s0.189-0.021 0.253-0.042c0.063-0.021 0.126-0.042 0.189-0.084 0.042-0.021 0.105-0.042 0.147-0.084 0.042-0.021 0.084-0.042 0.105-0.042 0.042 0 0.084 0.021 0.105 0.063l0.168 0.211c-0.063 0.084-0.147 0.147-0.232 0.189s-0.168 0.084-0.253 0.126c-0.084 0.021-0.189 0.063-0.274 0.063-0.084 0.021-0.189 0.021-0.274 0.021-0.168 0-0.337-0.021-0.484-0.084s-0.274-0.147-0.379-0.253c-0.105-0.105-0.189-0.253-0.253-0.421s-0.084-0.358-0.084-0.568c0-0.168 0.021-0.337 0.084-0.484s0.126-0.274 0.232-0.379c0.105-0.105 0.232-0.189 0.379-0.253s0.316-0.105 0.505-0.105c0.147 0 0.295 0.021 0.421 0.084 0.126 0.042 0.253 0.126 0.337 0.211 0.105 0.105 0.168 0.211 0.232 0.358s0.084 0.295 0.084 0.484c0 0.084 0 0.147-0.021 0.189-0.021 0.021-0.063 0.042-0.105 0.042h-1.579zM47.895 29.137c0-0.084-0.021-0.147-0.042-0.211s-0.063-0.126-0.105-0.189c-0.042-0.042-0.105-0.084-0.168-0.126-0.063-0.021-0.147-0.042-0.232-0.042-0.168 0-0.316 0.042-0.4 0.147-0.105 0.105-0.168 0.232-0.189 0.421h1.137z"></path>
<path fill="rgba(107, 114, 128, 1)" d="M50.653 28.716c-0.021 0.021-0.042 0.042-0.042 0.063-0.021 0.021-0.042 0.021-0.063 0.021s-0.063 0-0.084-0.021c-0.021-0.021-0.063-0.042-0.105-0.063s-0.084-0.042-0.147-0.063c-0.063-0.021-0.126-0.021-0.211-0.021-0.105 0-0.189 0.021-0.274 0.063s-0.147 0.084-0.189 0.168c-0.042 0.063-0.084 0.147-0.126 0.253-0.021 0.105-0.042 0.211-0.042 0.337s0.021 0.253 0.042 0.358c0.021 0.105 0.063 0.189 0.126 0.253s0.126 0.126 0.189 0.168c0.084 0.042 0.168 0.063 0.253 0.063 0.105 0 0.168-0.021 0.232-0.042s0.105-0.042 0.147-0.084c0.042-0.021 0.084-0.063 0.105-0.084s0.063-0.042 0.105-0.042c0.042 0 0.084 0.021 0.105 0.063l0.168 0.211c-0.063 0.084-0.147 0.147-0.211 0.189-0.084 0.042-0.147 0.084-0.232 0.126-0.084 0.021-0.168 0.063-0.253 0.063-0.084 0.021-0.168 0.021-0.253 0.021-0.147 0-0.295-0.021-0.421-0.084s-0.253-0.147-0.358-0.253c-0.105-0.105-0.189-0.253-0.232-0.4-0.063-0.168-0.084-0.337-0.084-0.547 0-0.189 0.021-0.358 0.084-0.505 0.042-0.147 0.126-0.295 0.232-0.4s0.232-0.211 0.379-0.274c0.147-0.063 0.316-0.105 0.526-0.105 0.189 0 0.337 0.021 0.484 0.084s0.274 0.147 0.379 0.253l-0.232 0.232z"></path>
<path fill="rgba(107, 114, 128, 1)" d="M51.789 28.463c0.105-0.084 0.211-0.168 0.316-0.211 0.105-0.063 0.253-0.084 0.4-0.084 0.126 0 0.253 0.021 0.358 0.063s0.189 0.105 0.253 0.189c0.063 0.084 0.126 0.189 0.168 0.295s0.063 0.232 0.063 0.379v1.579h-0.589v-1.579c0-0.147-0.042-0.274-0.105-0.358s-0.168-0.126-0.316-0.126c-0.105 0-0.189 0.021-0.295 0.063-0.084 0.042-0.168 0.105-0.253 0.189v1.789h-0.589v-3.579h0.589v1.389z"></path>
<path fill="rgba(107, 114, 128, 1)" d="M54.484 28.484c0.042-0.042 0.105-0.105 0.168-0.147s0.105-0.084 0.168-0.105c0.063-0.021 0.126-0.063 0.189-0.063 0.063-0.021 0.147-0.021 0.232-0.021 0.126 0 0.253 0.021 0.358 0.063s0.189 0.105 0.253 0.189c0.063 0.084 0.126 0.189 0.168 0.295s0.063 0.232 0.063 0.379v1.579h-0.589v-1.579c0-0.147-0.042-0.274-0.105-0.358s-0.168-0.126-0.316-0.126c-0.105 0-0.189 0.021-0.295 0.063-0.084 0.042-0.168 0.105-0.253 0.189v1.789h-0.589v-2.463h0.358c0.084 0 0.126 0.042 0.147 0.105l0.042 0.211z"></path>
<path fill="rgba(107, 114, 128, 1)" d="M57.726 28.147c0.189 0 0.358 0.021 0.505 0.084s0.274 0.147 0.379 0.253c0.105 0.105 0.189 0.253 0.253 0.4s0.084 0.337 0.084 0.526c0 0.189-0.021 0.379-0.084 0.526s-0.147 0.295-0.253 0.4c-0.105 0.105-0.232 0.189-0.379 0.253s-0.316 0.084-0.505 0.084c-0.189 0-0.358-0.021-0.505-0.084s-0.274-0.147-0.379-0.253c-0.105-0.105-0.189-0.253-0.253-0.4s-0.084-0.337-0.084-0.526c0-0.189 0.021-0.379 0.084-0.526s0.147-0.295 0.253-0.4c0.105-0.105 0.232-0.189 0.379-0.253 0.168-0.042 0.337-0.084 0.505-0.084zM57.726 30.232c0.211 0 0.358-0.063 0.463-0.211s0.147-0.337 0.147-0.611c0-0.274-0.042-0.463-0.147-0.611s-0.253-0.211-0.463-0.211c-0.211 0-0.358 0.063-0.463 0.211s-0.147 0.337-0.147 0.611c0 0.274 0.042 0.463 0.147 0.611s0.253 0.211 0.463 0.211z"></path>
<path fill="rgba(107, 114, 128, 1)" d="M60.021 27.074v3.579h-0.589v-3.579h0.589z"></path>
<path fill="rgba(107, 114, 128, 1)" d="M61.705 28.147c0.189 0 0.358 0.021 0.505 0.084s0.274 0.147 0.379 0.253c0.105 0.105 0.189 0.253 0.253 0.4s0.084 0.337 0.084 0.526c0 0.189-0.021 0.379-0.084 0.526s-0.147 0.295-0.253 0.4c-0.105 0.105-0.232 0.189-0.379 0.253s-0.316 0.084-0.505 0.084c-0.189 0-0.358-0.021-0.505-0.084s-0.274-0.147-0.379-0.253c-0.105-0.105-0.189-0.253-0.253-0.4s-0.084-0.337-0.084-0.526c0-0.189 0.021-0.379 0.084-0.526s0.147-0.295 0.253-0.4c0.105-0.105 0.232-0.189 0.379-0.253 0.147-0.042 0.316-0.084 0.505-0.084zM61.705 30.232c0.211 0 0.358-0.063 0.463-0.211s0.147-0.337 0.147-0.611c0-0.274-0.042-0.463-0.147-0.611s-0.253-0.211-0.463-0.211c-0.211 0-0.358 0.063-0.463 0.211s-0.147 0.337-0.147 0.611c0 0.274 0.042 0.463 0.147 0.611s0.253 0.211 0.463 0.211z"></path>
<path fill="rgba(107, 114, 128, 1)" d="M65.537 28.274v0.232c0 0.063-0.042 0.105-0.126 0.126l-0.232 0.042c0.042 0.084 0.042 0.168 0.042 0.274 0 0.126-0.021 0.232-0.063 0.337s-0.126 0.189-0.211 0.253c-0.084 0.063-0.189 0.126-0.316 0.168s-0.253 0.063-0.379 0.063c-0.042 0-0.105 0-0.147 0s-0.084-0.021-0.126-0.021c-0.084 0.042-0.105 0.105-0.105 0.147s0.021 0.084 0.063 0.105c0.042 0.021 0.105 0.042 0.189 0.042s0.168 0.021 0.253 0.021c0.105 0 0.189 0 0.295 0.021 0.105 0 0.211 0.021 0.295 0.042 0.105 0.021 0.189 0.042 0.253 0.105 0.084 0.042 0.126 0.105 0.189 0.168 0.042 0.084 0.063 0.168 0.063 0.295 0 0.105-0.021 0.211-0.084 0.316s-0.126 0.189-0.232 0.274c-0.105 0.084-0.232 0.147-0.379 0.189s-0.316 0.063-0.505 0.063c-0.189 0-0.358-0.021-0.484-0.063-0.147-0.042-0.253-0.084-0.337-0.147s-0.168-0.126-0.211-0.211c-0.042-0.084-0.063-0.168-0.063-0.253 0-0.105 0.042-0.211 0.105-0.295s0.168-0.147 0.295-0.189c-0.063-0.042-0.126-0.084-0.147-0.126-0.042-0.063-0.063-0.126-0.063-0.232 0-0.042 0-0.084 0.021-0.105 0.021-0.042 0.042-0.084 0.063-0.126s0.063-0.084 0.105-0.105c0.042-0.042 0.084-0.063 0.147-0.084-0.126-0.063-0.232-0.147-0.295-0.274-0.063-0.105-0.105-0.253-0.105-0.4 0-0.126 0.021-0.232 0.063-0.337s0.126-0.189 0.211-0.253c0.084-0.063 0.189-0.126 0.316-0.168s0.253-0.063 0.4-0.063c0.105 0 0.211 0.021 0.295 0.042s0.168 0.063 0.253 0.105h0.695zM64.926 30.779c0-0.042-0.021-0.084-0.042-0.126-0.021-0.021-0.063-0.063-0.126-0.063-0.042-0.021-0.105-0.021-0.168-0.042-0.063 0-0.147-0.021-0.211-0.021-0.084 0-0.147 0-0.232-0.021-0.084 0-0.147 0-0.232-0.021-0.063 0.042-0.126 0.084-0.168 0.126s-0.063 0.105-0.063 0.168c0 0.042 0.021 0.084 0.042 0.126s0.063 0.063 0.105 0.105c0.042 0.021 0.105 0.042 0.189 0.063s0.168 0.021 0.274 0.021c0.105 0 0.211 0 0.295-0.021s0.147-0.042 0.189-0.063c0.042-0.021 0.084-0.063 0.105-0.105 0.042-0.042 0.042-0.084 0.042-0.126zM64.253 29.368c0.084 0 0.147 0 0.189-0.021 0.063-0.021 0.105-0.042 0.126-0.084 0.042-0.042 0.063-0.084 0.084-0.126s0.021-0.105 0.021-0.168-0.042-0.211-0.105-0.295c-0.063-0.063-0.189-0.105-0.337-0.105s-0.253 0.042-0.337 0.105c-0.063 0.063-0.105 0.168-0.105 0.295 0 0.063 0 0.105 0.021 0.168 0.021 0.042 0.042 0.084 0.084 0.126s0.084 0.063 0.147 0.084c0.084 0 0.147 0.021 0.211 0.021z"></path>
<path fill="rgba(107, 114, 128, 1)" d="M66.611 27.474c0 0.042 0 0.105-0.021 0.147s-0.042 0.084-0.084 0.126c-0.042 0.042-0.084 0.063-0.126 0.084s-0.105 0.021-0.147 0.021c-0.042 0-0.105 0-0.147-0.021s-0.084-0.042-0.126-0.084c-0.042-0.042-0.063-0.063-0.084-0.126-0.021-0.042-0.021-0.084-0.021-0.147s0-0.105 0.021-0.147 0.042-0.084 0.084-0.126c0.042-0.042 0.063-0.063 0.126-0.084 0.042-0.021 0.084-0.021 0.147-0.021s0.105 0 0.147 0.021c0.042 0.021 0.084 0.042 0.126 0.084s0.063 0.084 0.084 0.126c0 0.042 0.021 0.084 0.021 0.147zM66.526 28.189v2.463h-0.589v-2.463h0.589z"></path>
<path fill="rgba(107, 114, 128, 1)" d="M67.579 29.495c0 0.126 0.042 0.232 0.063 0.337 0.042 0.084 0.084 0.168 0.147 0.232s0.126 0.105 0.211 0.126c0.084 0.021 0.168 0.042 0.274 0.042s0.189-0.021 0.253-0.042c0.063-0.021 0.126-0.042 0.189-0.084 0.042-0.021 0.105-0.042 0.147-0.084 0.042-0.021 0.084-0.042 0.105-0.042 0.042 0 0.084 0.021 0.105 0.063l0.168 0.211c-0.063 0.084-0.147 0.147-0.232 0.189s-0.168 0.084-0.253 0.126c-0.084 0.021-0.189 0.063-0.274 0.063-0.084 0.021-0.189 0.021-0.274 0.021-0.168 0-0.337-0.021-0.484-0.084s-0.274-0.147-0.379-0.253c-0.105-0.105-0.189-0.253-0.253-0.421s-0.084-0.358-0.084-0.568c0-0.168 0.021-0.337 0.084-0.484s0.126-0.274 0.232-0.379c0.105-0.105 0.232-0.189 0.379-0.253s0.316-0.105 0.505-0.105c0.147 0 0.295 0.021 0.421 0.084 0.126 0.042 0.253 0.126 0.337 0.211 0.105 0.105 0.168 0.211 0.232 0.358s0.084 0.295 0.084 0.484c0 0.084 0 0.147-0.021 0.189-0.021 0.021-0.063 0.042-0.105 0.042h-1.579zM68.716 29.137c0-0.084-0.021-0.147-0.042-0.211s-0.063-0.126-0.105-0.189c-0.042-0.042-0.105-0.084-0.168-0.126-0.063-0.021-0.147-0.042-0.232-0.042-0.168 0-0.316 0.042-0.4 0.147-0.105 0.105-0.168 0.232-0.189 0.421h1.137z"></path>
<path fill="rgba(107, 114, 128, 1)" d="M71.221 28.674c-0.021 0.021-0.042 0.042-0.042 0.063-0.021 0-0.042 0.021-0.063 0.021s-0.063 0-0.084-0.021c-0.042-0.021-0.063-0.042-0.105-0.063s-0.084-0.042-0.147-0.063c-0.063-0.021-0.126-0.021-0.189-0.021-0.126 0-0.211 0.021-0.274 0.084s-0.105 0.105-0.105 0.189c0 0.063 0.021 0.105 0.042 0.126 0.042 0.042 0.084 0.063 0.147 0.105 0.063 0.021 0.126 0.042 0.189 0.063s0.147 0.042 0.211 0.063c0.084 0.021 0.147 0.063 0.211 0.084 0.063 0.042 0.147 0.084 0.189 0.126 0.063 0.042 0.105 0.105 0.147 0.189 0.042 0.063 0.042 0.147 0.042 0.253 0 0.126-0.021 0.232-0.063 0.337s-0.105 0.189-0.189 0.253c-0.084 0.063-0.189 0.126-0.316 0.168s-0.274 0.063-0.421 0.063c-0.084 0-0.168 0-0.253-0.021s-0.168-0.042-0.232-0.063c-0.084-0.021-0.147-0.063-0.211-0.105s-0.126-0.084-0.168-0.126l0.147-0.232c0.021-0.021 0.042-0.042 0.063-0.063s0.063-0.021 0.084-0.021c0.042 0 0.063 0 0.105 0.021s0.063 0.042 0.105 0.063c0.042 0.021 0.084 0.042 0.147 0.063s0.126 0.021 0.232 0.021c0.063 0 0.126 0 0.189-0.021 0.042-0.021 0.084-0.042 0.126-0.063s0.063-0.063 0.063-0.105c0.021-0.042 0.021-0.063 0.021-0.105 0-0.063-0.021-0.105-0.042-0.147-0.042-0.042-0.084-0.063-0.147-0.105-0.063-0.021-0.126-0.042-0.189-0.063s-0.147-0.042-0.232-0.063c-0.084-0.021-0.147-0.063-0.232-0.084-0.063-0.042-0.147-0.084-0.189-0.126-0.063-0.063-0.105-0.126-0.147-0.189-0.042-0.084-0.042-0.168-0.042-0.274s0.021-0.189 0.063-0.295c0.042-0.084 0.105-0.168 0.168-0.232 0.084-0.063 0.168-0.126 0.295-0.168s0.253-0.063 0.4-0.063c0.168 0 0.316 0.021 0.463 0.084s0.253 0.126 0.358 0.232l-0.126 0.232z"></path>
</symbol>
</svg>
