<!-- Generated by IcoMoon.io -->
<svg version="1.1" xmlns="http://www.w3.org/2000/svg" width="39" height="32" viewBox="0 0 39 32">
<title>logo-2</title>
<symbol id="logo-2" viewBox="0 0 32 32">
<path fill="rgba(107, 114, 128, 1)"
            d="M25.884 32h12.853l-16.002-32h-12.856l3.105 6.21-12.897 25.79h12.856l1.364-2.73h10.21l1.368 2.73zM17.584 22.725l1.83-3.662 1.83 3.662h-3.659z"></path>
<path fill="#fff" d="M16.743 7.715l1.478 2.887-2.633 5.4h2.281l1.454 2.915h-5.213l-6.45 13.083h-2.953l12.036-24.285z"></path>
<path fill="rgba(107, 114, 128, 1)" d="M16.129 1.592h2.922l15.044 30.408h-3.008l-2.316-4.545h-13.583l1.375-2.915h10.885l-11.319-22.948z"></path>
<path fill="rgba(107, 114, 128, 1)" d="M20.299 2.66h-9.090l0.052 0.105h9.090l-0.052-0.105z"></path>
<path fill="rgba(107, 114, 128, 1)" d="M20.568 3.198h-9.090l0.052 0.105h9.090l-0.052-0.105z"></path>
<path fill="rgba(107, 114, 128, 1)" d="M20.836 3.735h-9.090l0.055 0.108h9.086l-0.052-0.108z"></path>
<path fill="rgba(107, 114, 128, 1)" d="M21.105 4.276h-9.090l0.055 0.105h9.086l-0.052-0.105z"></path>
<path fill="rgba(107, 114, 128, 1)" d="M21.374 4.814h-9.086l0.052 0.105h9.086l-0.052-0.105z"></path>
<path fill="rgba(107, 114, 128, 1)" d="M21.643 5.351h-9.086l0.052 0.105h9.090l-0.055-0.105z"></path>
<path fill="rgba(107, 114, 128, 1)" d="M21.911 5.889h-9.086l0.052 0.105h9.090l-0.055-0.105z"></path>
<path fill="rgba(107, 114, 128, 1)" d="M22.184 6.427h-9.090l0.052 0.108h9.090l-0.052-0.108z"></path>
<path fill="rgba(107, 114, 128, 1)" d="M22.452 6.968h-9.090l0.052 0.105h9.090l-0.052-0.105z"></path>
<path fill="rgba(107, 114, 128, 1)" d="M22.721 7.505h-9.090l0.052 0.105h9.090l-0.052-0.105z"></path>
<path fill="rgba(107, 114, 128, 1)" d="M22.99 8.043h-9.090l0.055 0.105h9.086l-0.052-0.105z"></path>
<path fill="rgba(107, 114, 128, 1)" d="M23.259 8.58h-9.090l0.055 0.105h9.086l-0.052-0.105z"></path>
<path fill="rgba(107, 114, 128, 1)" d="M23.527 9.118h-9.086l0.052 0.108h9.086l-0.052-0.108z"></path>
<path fill="rgba(107, 114, 128, 1)" d="M23.796 9.659h-9.086l0.052 0.105h9.090l-0.055-0.105z"></path>
<path fill="rgba(107, 114, 128, 1)" d="M24.065 10.197h-9.086l0.052 0.105h9.090l-0.055-0.105z"></path>
<path fill="rgba(107, 114, 128, 1)" d="M24.337 10.734h-9.090l0.052 0.105h9.090l-0.052-0.105z"></path>
<path fill="rgba(107, 114, 128, 1)" d="M24.606 11.272h-9.090l0.052 0.105h9.090l-0.052-0.105z"></path>
<path fill="rgba(107, 114, 128, 1)" d="M24.875 11.809h-9.090l0.052 0.108h9.090l-0.052-0.108z"></path>
<path fill="rgba(107, 114, 128, 1)" d="M25.143 12.35h-9.090l0.055 0.105h9.086l-0.052-0.105z"></path>
<path fill="rgba(107, 114, 128, 1)" d="M25.412 12.888h-9.090l0.055 0.105h9.086l-0.052-0.105z"></path>
<path fill="rgba(107, 114, 128, 1)" d="M25.681 13.426h-9.086l0.052 0.105h9.086l-0.052-0.105z"></path>
<path fill="rgba(107, 114, 128, 1)" d="M25.95 13.963h-9.086l0.052 0.105h9.090l-0.055-0.105z"></path>
<path fill="rgba(107, 114, 128, 1)" d="M26.218 14.501h-9.086l0.052 0.108h9.090l-0.055-0.108z"></path>
<path fill="rgba(107, 114, 128, 1)" d="M26.491 15.042h-9.090l0.052 0.105h9.090l-0.052-0.105z"></path>
<path fill="rgba(107, 114, 128, 1)" d="M26.76 15.579h-9.090l0.052 0.105h9.090l-0.052-0.105z"></path>
<path fill="rgba(107, 114, 128, 1)" d="M27.028 16.117h-9.090l0.052 0.105h9.090l-0.052-0.105z"></path>
<path fill="rgba(107, 114, 128, 1)" d="M27.297 16.655h-9.090l0.055 0.105h9.086l-0.052-0.105z"></path>
<path fill="rgba(107, 114, 128, 1)" d="M27.542 17.192h-9.076l0.055 0.108h9.073l-0.052-0.108z"></path>
<path fill="rgba(107, 114, 128, 1)" d="M27.835 17.733h-9.086l0.052 0.105h9.086l-0.052-0.105z"></path>
<path fill="rgba(107, 114, 128, 1)" d="M28.103 18.271h-9.086l0.052 0.105h9.090l-0.055-0.105z"></path>
<path fill="rgba(107, 114, 128, 1)" d="M28.372 18.808h-9.086l0.052 0.105h9.090l-0.055-0.105z"></path>
<path fill="rgba(107, 114, 128, 1)" d="M28.644 19.346h-9.090l0.052 0.105h9.090l-0.052-0.105z"></path>
<path fill="rgba(107, 114, 128, 1)" d="M28.913 19.884h-9.090l0.052 0.108h9.090l-0.052-0.108z"></path>
<path fill="rgba(107, 114, 128, 1)" d="M29.182 20.425h-9.090l0.055 0.105h9.086l-0.052-0.105z"></path>
<path fill="rgba(107, 114, 128, 1)" d="M29.451 20.962h-9.090l0.055 0.105h9.086l-0.052-0.105z"></path>
<path fill="rgba(107, 114, 128, 1)" d="M29.719 21.5h-9.086l0.052 0.105h9.086l-0.052-0.105z"></path>
<path fill="rgba(107, 114, 128, 1)" d="M29.988 22.037h-9.086l0.052 0.105h9.086l-0.052-0.105z"></path>
<path fill="rgba(107, 114, 128, 1)" d="M30.257 22.575h-9.086l0.052 0.108h9.090l-0.055-0.108z"></path>
<path fill="rgba(107, 114, 128, 1)" d="M30.526 23.116h-9.086l0.052 0.105h9.090l-0.055-0.105z"></path>
<path fill="rgba(107, 114, 128, 1)" d="M30.798 23.654h-9.090l0.052 0.105h9.090l-0.052-0.105z"></path>
<path fill="rgba(107, 114, 128, 1)" d="M31.067 24.191h-9.090l0.052 0.105h9.090l-0.052-0.105z"></path>
<path fill="rgba(107, 114, 128, 1)" d="M31.335 24.729h-9.090l0.055 0.105h9.086l-0.052-0.105z"></path>
<path fill="rgba(107, 114, 128, 1)" d="M31.604 25.266h-9.090l0.055 0.108h9.086l-0.052-0.108z"></path>
<path fill="rgba(107, 114, 128, 1)" d="M31.873 25.807h-1.992l0.052 0.105h1.992l-0.052-0.105z"></path>
<path fill="rgba(107, 114, 128, 1)" d="M32.142 26.345h-9.086l0.052 0.105h9.086l-0.052-0.105z"></path>
<path fill="rgba(107, 114, 128, 1)" d="M32.41 26.883h-9.086l0.052 0.105h9.090l-0.055-0.105z"></path>
<path fill="rgba(107, 114, 128, 1)" d="M32.679 27.42h-3.663v0.105h3.718l-0.055-0.105z"></path>
<path fill="rgba(107, 114, 128, 1)" d="M32.951 27.958h-9.090l0.052 0.108h9.090l-0.052-0.108z"></path>
<path fill="rgba(107, 114, 128, 1)" d="M33.22 28.499h-9.090l0.052 0.105h9.090l-0.052-0.105z"></path>
<path fill="rgba(107, 114, 128, 1)" d="M33.489 29.036h-9.090l0.055 0.105h9.086l-0.052-0.105z"></path>
<path fill="rgba(107, 114, 128, 1)" d="M33.758 29.574h-9.090l0.055 0.105h9.086l-0.052-0.105z"></path>
<path fill="rgba(107, 114, 128, 1)" d="M34.027 30.111h-9.086l0.052 0.105h9.086l-0.052-0.105z"></path>
<path fill="rgba(107, 114, 128, 1)" d="M34.295 30.649h-9.086l0.052 0.108h9.086l-0.052-0.108z"></path>
<path fill="rgba(107, 114, 128, 1)" d="M34.564 31.19h-9.086l0.052 0.105h9.090l-0.055-0.105z"></path>
<path fill="rgba(107, 114, 128, 1)" d="M3.501 31.242l0.348 0.709 0.351-0.709h-0.699z"></path>
<path fill="rgba(107, 114, 128, 1)" d="M1.737 31.242l0.351 0.709 0.348-0.709h-0.699z"></path>
<path fill="rgba(107, 114, 128, 1)" d="M4.2 29.811l0.348 0.709 0.351-0.709h-0.7z"></path>
<path fill="rgba(107, 114, 128, 1)" d="M2.436 29.811l0.351 0.709 0.348-0.709h-0.7z"></path>
<path fill="rgba(107, 114, 128, 1)" d="M4.9 28.38l0.348 0.709 0.351-0.709h-0.699z"></path>
<path fill="rgba(107, 114, 128, 1)" d="M3.136 28.38l0.351 0.709 0.348-0.709h-0.699z"></path>
<path fill="rgba(107, 114, 128, 1)" d="M5.599 26.949l0.348 0.709 0.351-0.709h-0.699z"></path>
<path fill="rgba(107, 114, 128, 1)" d="M3.835 26.949l0.351 0.709 0.348-0.709h-0.699z"></path>
<path fill="rgba(107, 114, 128, 1)" d="M6.299 25.518l0.348 0.709 0.351-0.709h-0.7z"></path>
<path fill="rgba(107, 114, 128, 1)" d="M4.535 25.518l0.351 0.709 0.348-0.709h-0.699z"></path>
<path fill="rgba(107, 114, 128, 1)" d="M6.998 24.086l0.348 0.709 0.351-0.709h-0.699z"></path>
<path fill="rgba(107, 114, 128, 1)" d="M5.234 24.086l0.351 0.709 0.348-0.709h-0.699z"></path>
<path fill="rgba(107, 114, 128, 1)" d="M7.698 22.655l0.348 0.709 0.351-0.709h-0.7z"></path>
<path fill="rgba(107, 114, 128, 1)" d="M5.934 22.655l0.351 0.709 0.348-0.709h-0.699z"></path>
<path fill="rgba(107, 114, 128, 1)" d="M0 31.242l0.351 0.709 0.348-0.709h-0.699z"></path>
<path fill="rgba(107, 114, 128, 1)" d="M0.699 29.811l0.351 0.709 0.348-0.709h-0.7z"></path>
<path fill="rgba(107, 114, 128, 1)" d="M1.399 28.38l0.351 0.709 0.348-0.709h-0.699z"></path>
<path fill="rgba(107, 114, 128, 1)" d="M2.098 26.949l0.351 0.709 0.348-0.709h-0.699z"></path>
<path fill="rgba(107, 114, 128, 1)" d="M2.798 25.518l0.351 0.709 0.351-0.709h-0.703z"></path>
<path fill="rgba(107, 114, 128, 1)" d="M3.501 24.086l0.348 0.709 0.351-0.709h-0.699z"></path>
<path fill="rgba(107, 114, 128, 1)" d="M4.2 22.655l0.348 0.709 0.351-0.709h-0.7z"></path>
<path fill="rgba(107, 114, 128, 1)" d="M18.955 2.175h-7.987l-0.269-0.538h8.256v0.538z"></path>
<path fill="rgba(107, 114, 128, 1)" d="M19.758 1.585h-9.086l0.052 0.105h9.090l-0.055-0.105z"></path>
<path fill="rgba(107, 114, 128, 1)" d="M20.027 2.122h-9.083l0.048 0.105h9.090l-0.055-0.105z"></path>
</symbol>
</svg>
