<!-- Generated by IcoMoon.io -->
<svg version="1.1" xmlns="http://www.w3.org/2000/svg" width="55" height="32" viewBox="0 0 55 32">
<title>logo_ru</title>
<symbol id="logo-3" viewBox="0 0 32 32">
<path fill="rgba(107, 114, 128, 1)"
            d="M35.749 0.366v22.034c0 0.183 0 0.183 0.183 0.183h5.76c0.183 0 0.183 0 0.183-0.183v-7.771h1.829c1.554 2.651 3.291 5.303 4.663 8.046h6.309c-0.274-0.457-0.457-0.823-0.731-1.28-0.823-1.371-5.12-8.229-5.211-8.777 0.183-0.091 0.457-0.274 0.64-0.457 2.286-1.554 2.743-2.926 2.743-5.76 0-4.297-4.023-6.217-7.863-6.217h-8.411c-0.091 0-0.091 0.091-0.091 0.183zM42.514 9.966h-0.64v-5.12c0-0.091 0.731-0.183 1.554-0.183 0.731 0.091 1.554 0.274 2.011 0.731 1.006 0.731 1.097 3.2-0.366 4.023-0.64 0.366-1.646 0.549-2.56 0.549z"></path>
<path fill="rgba(107, 114, 128, 1)"
            d="M51.566 31.909v-2.469l-2.194-3.383h1.371l1.371 2.286 1.371-2.286h1.371l-2.103 3.383v2.469h-1.189zM46.080 31.909v-4.846h-1.737v-1.006h4.663v1.006h-1.737v4.846h-1.189zM42.24 31.909v-5.851h1.189v5.851h-1.189zM37.394 28.526h0.914c0.549 0 0.914 0 1.097-0.091s0.274-0.091 0.366-0.274c0.091-0.091 0.091-0.274 0.091-0.457s-0.091-0.366-0.183-0.457c-0.091-0.091-0.274-0.183-0.457-0.274-0.091 0-0.366 0-0.823 0h-0.914v1.554zM36.206 31.909v-5.851h2.469c0.64 0 1.097 0.091 1.371 0.183s0.549 0.274 0.64 0.549c0.183 0.274 0.274 0.549 0.274 0.914 0 0.457-0.091 0.823-0.366 1.097s-0.64 0.457-1.189 0.549c0.274 0.183 0.457 0.274 0.64 0.457s0.366 0.457 0.64 0.914l0.731 1.189h-1.371l-0.823-1.28c-0.274-0.457-0.549-0.731-0.64-0.823s-0.274-0.183-0.366-0.274c-0.091 0-0.366-0.091-0.64-0.091h-0.274v2.469h-1.097zM30.080 26.057h1.189v3.2c0 0.549 0 0.823 0 1.006 0.091 0.274 0.183 0.457 0.366 0.549 0.183 0.183 0.457 0.183 0.731 0.183 0.366 0 0.549-0.091 0.731-0.183 0.183-0.183 0.274-0.274 0.274-0.549 0-0.183 0.091-0.549 0.091-1.006v-3.291h1.28v3.109c0 0.731 0 1.189-0.091 1.463s-0.183 0.549-0.366 0.731c-0.183 0.183-0.366 0.366-0.64 0.457-0.366 0.183-0.731 0.274-1.189 0.274-0.549 0-1.006-0.091-1.28-0.183s-0.549-0.274-0.64-0.549c-0.183-0.183-0.274-0.457-0.366-0.64-0.091-0.366-0.091-0.823-0.091-1.463v-3.109zM27.703 29.714l1.097 0.366c-0.183 0.64-0.457 1.097-0.914 1.463-0.366 0.274-0.914 0.457-1.554 0.457-0.731 0-1.371-0.274-1.92-0.823-0.457-0.549-0.731-1.28-0.731-2.194 0-1.006 0.274-1.737 0.731-2.286s1.189-0.823 2.011-0.823c0.731 0 1.28 0.183 1.737 0.64 0.274 0.274 0.457 0.64 0.64 1.097l-1.189 0.274c-0.091-0.274-0.183-0.549-0.457-0.731-0.183-0.183-0.457-0.274-0.823-0.274-0.457 0-0.823 0.183-1.097 0.457s-0.366 0.823-0.366 1.554c0 0.731 0.091 1.28 0.366 1.554s0.64 0.457 1.006 0.457c0.274 0 0.549-0.091 0.823-0.274 0.366-0.183 0.549-0.457 0.64-0.914zM18.286 31.909v-5.851h4.297v1.006h-3.109v1.28h2.926v1.006h-2.926v1.554h3.291v1.006h-4.48zM12.343 29.989l1.189-0.091c0.091 0.366 0.183 0.64 0.457 0.823 0.183 0.183 0.457 0.274 0.823 0.274s0.64-0.091 0.823-0.274c0.183-0.183 0.274-0.366 0.274-0.549s0-0.274-0.091-0.366c-0.091-0.091-0.183-0.183-0.457-0.274-0.091-0.091-0.457-0.091-0.914-0.274-0.64-0.183-1.097-0.366-1.28-0.549-0.366-0.366-0.549-0.731-0.549-1.189 0-0.274 0.091-0.549 0.274-0.823s0.366-0.457 0.731-0.64c0.274-0.091 0.731-0.183 1.189-0.183 0.731 0 1.28 0.183 1.646 0.457 0.366 0.366 0.549 0.731 0.549 1.28h-1.189c-0.091-0.274-0.183-0.549-0.366-0.64s-0.366-0.183-0.731-0.183c-0.366 0-0.64 0.091-0.823 0.183-0.183 0.274-0.183 0.366-0.183 0.549s0.091 0.274 0.183 0.366c0.183 0.091 0.549 0.274 1.097 0.366s1.006 0.274 1.28 0.457c0.274 0.183 0.457 0.366 0.64 0.64s0.274 0.549 0.274 0.914c0 0.366-0.091 0.64-0.274 0.914s-0.457 0.549-0.823 0.64c-0.366 0.183-0.731 0.183-1.28 0.183-0.731 0-1.28-0.183-1.737-0.549-0.457-0.274-0.64-0.823-0.731-1.463z"></path>
<path fill="rgba(107, 114, 128, 1)" d="M7.771 22.4h0.366v9.326h-0.366v-9.326z"></path>
<path fill="rgba(107, 114, 128, 1)"
            d="M12.343 0.091h5.669v8.503h7.497v-8.503h5.669v22.491h-5.669v-9.051h-7.497v9.051h-5.669z"></path>
<path fill="rgba(107, 114, 128, 1)"
            d="M0.914 1.737c0.091-0.366 0.366-0.823 1.189-0.823s1.097 0.457 1.189 0.823h-2.377zM3.2 2.56c0 0.366-0.366 0.823-1.097 0.823-0.823 0-1.097-0.457-1.189-0.823h2.286zM0 2.56h0.366c0 0.731 0.549 1.737 1.737 1.737s1.646-0.823 1.737-1.646h0.366v-0.914h-0.366c-0.091-0.823-0.549-1.646-1.737-1.646s-1.737 0.823-1.737 1.646h-0.366v0.823zM2.377 7.040l-0.823-0.274c-0.183 0-0.549-0.091-0.731-0.183v0c0.183 0 0.549-0.091 0.731-0.183l0.823-0.274v0.914zM3.017 6.034l1.006-0.274v-0.914l-3.84 1.189v1.189l3.84 1.189v-0.914l-1.006-0.366v-1.097zM0.823 10.606c0-0.091 0-0.183 0-0.366 0-0.457 0.183-0.731 0.549-0.731s0.64 0.274 0.64 0.731c0 0.091 0 0.183 0 0.274h-1.189zM4.023 11.429v-0.914h-1.371c0-0.091 0-0.183 0-0.274 0-0.549-0.091-1.006-0.366-1.28-0.183-0.274-0.549-0.366-0.914-0.366s-0.731 0.183-0.914 0.457c-0.183 0.274-0.274 0.64-0.274 1.189s0 0.914 0.091 1.189h3.749zM0.183 14.629h3.84v-0.914h-3.109v-1.463h-0.731v2.377zM0.183 19.017h3.84v-1.006l-1.371-0.823c-0.366-0.274-0.914-0.457-1.371-0.64v0c0.549 0.091 1.006 0.091 1.646 0.091h1.189v-0.823h-3.931v0.914l1.554 0.823c0.457 0.274 0.914 0.457 1.371 0.731v0c-0.549 0-1.097-0.091-1.737-0.091h-1.189v0.823zM0.183 22.766h1.646c0.549 0 1.097 0.091 1.371 0.274 0.091 0.091 0.183 0.274 0.183 0.457l0.731-0.091c0-0.274-0.091-0.549-0.183-0.823-0.366-0.549-1.097-0.731-2.103-0.731h-0.914v-0.914h3.2v-0.914h-3.931v2.743zM0.823 25.783c0-0.64 0.64-0.914 1.28-0.914 0.731 0 1.28 0.366 1.28 0.914s-0.549 0.914-1.28 0.914c-0.731 0.091-1.28-0.274-1.28-0.914zM0.091 25.783c0 1.189 0.914 1.92 2.011 1.92s2.011-0.64 2.011-1.829c0-1.189-0.731-1.92-2.011-1.92-1.097 0-2.011 0.64-2.011 1.829zM0.183 31.817h3.84v-0.914h-3.109v-1.371h3.2v-0.914h-3.931v3.2z"></path>
</symbol>
</svg>
